<svg xmlns="http://www.w3.org/2000/svg" xmlns:xlink="http://www.w3.org/1999/xlink" viewBox="0,0,256,256" width="64px" height="64px" fill-rule="nonzero"><defs><linearGradient x1="48.25" y1="23" x2="48.25" y2="26" gradientUnits="userSpaceOnUse" id="color-1"><stop offset="0" stop-color="#0c05cf"></stop><stop offset="1" stop-color="#5f2677"></stop></linearGradient><linearGradient x1="39.25" y1="36" x2="39.25" y2="39" gradientUnits="userSpaceOnUse" id="color-2"><stop offset="0" stop-color="#0c05cf"></stop><stop offset="1" stop-color="#5f2677"></stop></linearGradient><linearGradient x1="26.5" y1="35.4" x2="26.5" y2="39" gradientUnits="userSpaceOnUse" id="color-3"><stop offset="0" stop-color="#0c05cf"></stop><stop offset="1" stop-color="#5f2677"></stop></linearGradient><linearGradient x1="35.5" y1="22.4" x2="35.5" y2="26" gradientUnits="userSpaceOnUse" id="color-4"><stop offset="0" stop-color="#0c05cf"></stop><stop offset="1" stop-color="#5f2677"></stop></linearGradient><linearGradient x1="31.5" y1="19" x2="31.5" y2="46" gradientUnits="userSpaceOnUse" id="color-5"><stop offset="0" stop-color="#073485"></stop><stop offset="1" stop-color="#8b33a8"></stop></linearGradient></defs><g fill="none" fill-rule="nonzero" stroke="none" stroke-width="1" stroke-linecap="butt" stroke-linejoin="miter" stroke-miterlimit="10" stroke-dasharray="" stroke-dashoffset="0" font-family="none" font-weight="none" font-size="none" text-anchor="none" style="mix-blend-mode: normal"><g transform="scale(4,4)"><path d="M49.044,23h-3.044v3h3.044c0.794,0 1.456,-0.6 1.456,-1.5c0,-0.9 -0.662,-1.5 -1.456,-1.5z" fill="url(#color-1)"></path><path d="M40.044,36h-3.044v3h3.044c0.794,0 1.456,-0.6 1.456,-1.5c0,-0.9 -0.662,-1.5 -1.456,-1.5z" fill="url(#color-2)"></path><path d="M25,39h3l-1.5,-3.6z" fill="url(#color-3)"></path><path d="M34,26h3l-1.5,-3.6z" fill="url(#color-4)"></path><path d="M58,26h-3.21c0.14,-0.48 0.21,-0.99 0.21,-1.5c0,-3.03 -2.47,-5.5 -5.5,-5.5h-8.5v5.67l-1.89,-5.67h-24.81c-2.45,0 -4.3,1.89 -4.3,4.4c0,1.04 0.36,1.65 0.53,1.93c0.08,0.14 0.22,0.39 0.39,0.67h-5.92v8l4.28,12h4.34l0.88,-1.76l0.88,1.76h10.41l0.7,-3h0.15l0.69,3h11.67v-0.55c0.52,0.35 1.16,0.55 1.8,0.55h11.157c2.455,0 4.546,-1.95 4.543,-4.405c-0.001,-1.037 -0.36,-1.646 -0.54,-1.945l-0.43,-0.65h2.47zM7,28h6.581c0.39,0 0.632,-0.423 0.429,-0.756c-0.601,-0.99 -1.598,-2.636 -1.77,-2.954c-0.1,-0.17 -0.24,-0.4 -0.24,-0.89c0,-1.39 0.97,-2.4 2.3,-2.4h16.896l-0.966,3h-4.23v7h-4v-7h-5.496c-0.395,0 -0.634,0.437 -0.421,0.77l1.827,2.85c0.06,0.1 0.29,0.57 0.29,0.98c0,1.35 -1.05,2.4 -2.4,2.4h-8.8zM29.59,26l-1.59,4.93v-4.93zM19.62,26.57l-0.37,-0.57h0.75v1.45c-0.15,-0.47 -0.34,-0.8 -0.38,-0.88zM20,29.87v2.13h-1.41c0.67,-0.54 1.16,-1.28 1.41,-2.13zM16.62,44l-2.12,-4.24l-2.12,4.24h-1.66l-3.33,-10h2.99l1.62,3.24l1.62,-3.24h1.76l1.62,3.24l1.62,-3.24h2.99l-3.33,10zM28.92,44l-0.7,-3h-3.32l-0.7,3h-3.13l3.22,-10h4.37l3.33,10zM32,37.71l-1.57,-4.71h1.57zM33.22,31h-3.14l3.22,-10h4.37l3.33,10h-3.07l-0.7,-3h-3.31zM36.11,32h-1.07l0.46,-2h0.15zM56,37h-3.261c-0.398,0 -0.637,0.443 -0.417,0.776l1.938,2.934c0.103,0.175 0.248,0.413 0.24,0.931c-0.021,1.315 -1.129,2.359 -2.445,2.359h-11.255c-0.38,0 -0.68,-0.18 -0.81,-0.31c-0.35,-0.31 -2.99,-2.78 -2.99,-2.78v3.09h-3v-10h6.171c0.793,0 1.588,0.2 2.245,0.643c1.831,1.235 1.95,3.363 0.994,4.797l-1.05,1.56h7.389c0.407,0 0.643,-0.459 0.407,-0.79c-0.76,-1.065 -2.02,-2.83 -2.027,-2.83c-0.1,-0.16 -0.23,-0.39 -0.23,-0.88c0,-1.38 1.08,-2.5 2.4,-2.5h5.701zM45.99,37.32c0.12,0.55 0.33,0.92 0.47,1.15c0,0 0.15,0.22 0.37,0.53h-1.04c0.14,-0.48 0.21,-0.99 0.21,-1.5c0,-0.06 -0.01,-0.12 -0.01,-0.18zM45.9,36.48c-0.27,-1.43 -1.1,-2.67 -2.25,-3.48h3.92c-1.01,0.82 -1.66,2.07 -1.67,3.48zM48,32.68v-0.23c0.06,0.05 0.14,0.08 0.2,0.12c-0.06,0.04 -0.13,0.07 -0.2,0.11zM56,31h-6.2c-0.38,0 -0.68,-0.18 -0.81,-0.31c-0.35,-0.31 -2.99,-2.78 -2.99,-2.78v3.09h-3v-10h6.171c0.793,0 1.588,0.2 2.245,0.643c1.831,1.235 1.95,3.363 0.994,4.797l-1.05,1.56h4.64z" fill="url(#color-5)"></path></g></g></svg>